<svg width="15" height="15" viewBox="0 0 15 15" fill="none" xmlns="http://www.w3.org/2000/svg">
<path d="M7.50003 8.91666C7.35993 8.91666 7.22298 8.9582 7.1065 9.03603C6.99001 9.11386 6.89922 9.22449 6.84561 9.35392C6.792 9.48335 6.77797 9.62578 6.8053 9.76318C6.83264 9.90058 6.9001 10.0268 6.99916 10.1259C7.09822 10.2249 7.22444 10.2924 7.36184 10.3197C7.49924 10.347 7.64166 10.333 7.77109 10.2794C7.90053 10.2258 8.01115 10.135 8.08898 10.0185C8.16682 9.90203 8.20836 9.76508 8.20836 9.62499C8.20836 9.43713 8.13373 9.25696 8.00089 9.12412C7.86806 8.99128 7.68789 8.91666 7.50003 8.91666ZM7.50003 0.416656C6.56983 0.416656 5.64874 0.599872 4.78935 0.955843C3.92996 1.31181 3.1491 1.83357 2.49135 2.49132C1.16297 3.8197 0.416694 5.62137 0.416694 7.49999C0.410501 9.13563 0.976838 10.7219 2.01753 11.9837L0.600861 13.4004C0.502574 13.5 0.435993 13.6265 0.40952 13.7639C0.383047 13.9013 0.397867 14.0435 0.45211 14.1725C0.510943 14.2999 0.606318 14.407 0.726127 14.4802C0.845936 14.5533 0.984778 14.5892 1.12503 14.5833H7.50003C9.37864 14.5833 11.1803 13.837 12.5087 12.5087C13.8371 11.1803 14.5834 9.37861 14.5834 7.49999C14.5834 5.62137 13.8371 3.8197 12.5087 2.49132C11.1803 1.16293 9.37864 0.416656 7.50003 0.416656ZM7.50003 13.1667H2.83211L3.49086 12.5079C3.55779 12.4423 3.61103 12.3641 3.64751 12.2777C3.68399 12.1914 3.70297 12.0987 3.70336 12.005C3.7007 11.8182 3.62432 11.6399 3.49086 11.5092C2.56336 10.5827 1.98578 9.36329 1.85652 8.05872C1.72726 6.75415 2.05432 5.44512 2.78198 4.35465C3.50964 3.26418 4.59288 2.45974 5.84714 2.07839C7.10141 1.69703 8.44909 1.76235 9.6606 2.26322C10.8721 2.76409 11.8725 3.66952 12.4913 4.82525C13.11 5.98097 13.309 7.3155 13.0542 8.60145C12.7993 9.88741 12.1065 11.0452 11.0938 11.8777C10.081 12.7101 8.81098 13.1656 7.50003 13.1667ZM7.50003 4.66666C7.31217 4.66666 7.132 4.74128 6.99916 4.87412C6.86632 5.00696 6.79169 5.18713 6.79169 5.37499V7.49999C6.79169 7.68785 6.86632 7.86802 6.99916 8.00086C7.132 8.1337 7.31217 8.20832 7.50003 8.20832C7.68789 8.20832 7.86806 8.1337 8.00089 8.00086C8.13373 7.86802 8.20836 7.68785 8.20836 7.49999V5.37499C8.20836 5.18713 8.13373 5.00696 8.00089 4.87412C7.86806 4.74128 7.68789 4.66666 7.50003 4.66666Z" fill="#FF3D00"/>
</svg>
